<svg id="svg" xmlns="http://www.w3.org/2000/svg" xmlns:xlink="http://www.w3.org/1999/xlink" width="400" height="70.17543859649122" viewBox="0, 0, 400,70.17543859649122"><g id="svgg"><path id="path0" d="M7.018 5.263 L 7.018 10.526 8.772 10.526 L 10.526 10.526 10.526 21.053 L 10.526 31.579 15.789 31.579 L 21.053 31.579 21.053 35.088 L 21.053 38.596 17.544 38.596 L 14.035 38.596 14.035 36.842 L 14.035 35.088 8.772 35.088 L 3.509 35.088 3.509 40.351 L 3.509 45.614 8.772 45.614 L 14.035 45.614 14.035 43.860 L 14.035 42.105 17.544 42.105 L 21.053 42.105 21.053 43.860 L 21.053 45.614 22.807 45.614 L 24.561 45.614 24.561 49.123 L 24.561 52.632 22.807 52.632 L 21.053 52.632 21.053 54.386 L 21.053 56.140 24.561 56.140 L 28.070 56.140 28.070 50.877 L 28.070 45.614 31.579 45.614 L 35.088 45.614 35.088 49.123 L 35.088 52.632 33.333 52.632 L 31.579 52.632 31.579 57.895 L 31.579 63.158 36.842 63.158 L 42.105 63.158 42.105 57.895 L 42.105 52.632 40.351 52.632 L 38.596 52.632 38.596 49.123 L 38.596 45.614 42.105 45.614 L 45.614 45.614 45.614 42.105 L 45.614 38.596 49.123 38.596 L 52.632 38.596 52.632 47.368 L 52.632 56.140 50.877 56.140 L 49.123 56.140 49.123 61.404 L 49.123 66.667 54.386 66.667 L 59.649 66.667 59.649 61.404 L 59.649 56.140 57.895 56.140 L 56.140 56.140 56.140 45.614 L 56.140 35.088 50.877 35.088 L 45.614 35.088 45.614 31.579 L 45.614 28.070 49.123 28.070 L 52.632 28.070 52.632 29.825 L 52.632 31.579 57.895 31.579 L 63.158 31.579 63.158 26.316 L 63.158 21.053 57.895 21.053 L 52.632 21.053 52.632 22.807 L 52.632 24.561 49.123 24.561 L 45.614 24.561 45.614 22.807 L 45.614 21.053 43.860 21.053 L 42.105 21.053 42.105 17.544 L 42.105 14.035 43.860 14.035 L 45.614 14.035 45.614 12.281 L 45.614 10.526 42.105 10.526 L 38.596 10.526 38.596 15.789 L 38.596 21.053 35.088 21.053 L 31.579 21.053 31.579 17.544 L 31.579 14.035 33.333 14.035 L 35.088 14.035 35.088 8.772 L 35.088 3.509 29.825 3.509 L 24.561 3.509 24.561 8.772 L 24.561 14.035 26.316 14.035 L 28.070 14.035 28.070 17.544 L 28.070 21.053 24.561 21.053 L 21.053 21.053 21.053 24.561 L 21.053 28.070 17.544 28.070 L 14.035 28.070 14.035 19.298 L 14.035 10.526 15.789 10.526 L 17.544 10.526 17.544 5.263 L 17.544 0.000 12.281 0.000 L 7.018 0.000 7.018 5.263 M14.035 5.263 L 14.035 7.018 12.281 7.018 L 10.526 7.018 10.526 5.263 L 10.526 3.509 12.281 3.509 L 14.035 3.509 14.035 5.263 M31.579 8.772 L 31.579 10.526 29.825 10.526 L 28.070 10.526 28.070 8.772 L 28.070 7.018 29.825 7.018 L 31.579 7.018 31.579 8.772 M56.140 12.281 L 56.140 17.544 61.404 17.544 L 66.667 17.544 66.667 12.281 L 66.667 7.018 61.404 7.018 L 56.140 7.018 56.140 12.281 M49.123 12.281 L 49.123 14.035 50.877 14.035 L 52.632 14.035 52.632 12.281 L 52.632 10.526 50.877 10.526 L 49.123 10.526 49.123 12.281 M63.158 12.281 L 63.158 14.035 61.404 14.035 L 59.649 14.035 59.649 12.281 L 59.649 10.526 61.404 10.526 L 63.158 10.526 63.158 12.281 M80.702 15.789 L 80.702 17.544 78.947 17.544 L 77.193 17.544 77.193 19.298 L 77.193 21.053 75.439 21.053 L 73.684 21.053 73.684 24.561 L 73.684 28.070 75.439 28.070 L 77.193 28.070 77.193 29.825 L 77.193 31.579 78.947 31.579 L 80.702 31.579 80.702 33.333 L 80.702 35.088 85.965 35.088 L 91.228 35.088 91.228 36.842 L 91.228 38.596 92.982 38.596 L 94.737 38.596 94.737 42.105 L 94.737 45.614 92.982 45.614 L 91.228 45.614 91.228 47.368 L 91.228 49.123 84.211 49.123 L 77.193 49.123 77.193 47.368 L 77.193 45.614 75.439 45.614 L 73.684 45.614 73.684 49.123 L 73.684 52.632 82.456 52.632 L 91.228 52.632 91.228 50.877 L 91.228 49.123 92.982 49.123 L 94.737 49.123 94.737 47.368 L 94.737 45.614 96.491 45.614 L 98.246 45.614 98.246 42.105 L 98.246 38.596 96.491 38.596 L 94.737 38.596 94.737 36.842 L 94.737 35.088 92.982 35.088 L 91.228 35.088 91.228 33.333 L 91.228 31.579 85.965 31.579 L 80.702 31.579 80.702 29.825 L 80.702 28.070 78.947 28.070 L 77.193 28.070 77.193 24.561 L 77.193 21.053 78.947 21.053 L 80.702 21.053 80.702 19.298 L 80.702 17.544 85.965 17.544 L 91.228 17.544 91.228 19.298 L 91.228 21.053 92.982 21.053 L 94.737 21.053 94.737 17.544 L 94.737 14.035 87.719 14.035 L 80.702 14.035 80.702 15.789 M161.404 15.789 L 161.404 17.544 163.158 17.544 L 164.912 17.544 164.912 33.333 L 164.912 49.123 163.158 49.123 L 161.404 49.123 161.404 50.877 L 161.404 52.632 166.667 52.632 L 171.930 52.632 171.930 50.877 L 171.930 49.123 170.175 49.123 L 168.421 49.123 168.421 31.579 L 168.421 14.035 164.912 14.035 L 161.404 14.035 161.404 15.789 M259.649 17.544 L 259.649 21.053 257.895 21.053 L 256.140 21.053 256.140 24.561 L 256.140 28.070 254.386 28.070 L 252.632 28.070 252.632 31.579 L 252.632 35.088 250.877 35.088 L 249.123 35.088 249.123 38.596 L 249.123 42.105 247.368 42.105 L 245.614 42.105 245.614 45.614 L 245.614 49.123 243.860 49.123 L 242.105 49.123 242.105 50.877 L 242.105 52.632 247.368 52.632 L 252.632 52.632 252.632 50.877 L 252.632 49.123 250.877 49.123 L 249.123 49.123 249.123 45.614 L 249.123 42.105 261.404 42.105 L 273.684 42.105 273.684 45.614 L 273.684 49.123 271.930 49.123 L 270.175 49.123 270.175 50.877 L 270.175 52.632 275.439 52.632 L 280.702 52.632 280.702 50.877 L 280.702 49.123 278.947 49.123 L 277.193 49.123 277.193 45.614 L 277.193 42.105 275.439 42.105 L 273.684 42.105 273.684 38.596 L 273.684 35.088 271.930 35.088 L 270.175 35.088 270.175 31.579 L 270.175 28.070 268.421 28.070 L 266.667 28.070 266.667 24.561 L 266.667 21.053 264.912 21.053 L 263.158 21.053 263.158 17.544 L 263.158 14.035 261.404 14.035 L 259.649 14.035 259.649 17.544 M263.158 24.561 L 263.158 28.070 264.912 28.070 L 266.667 28.070 266.667 31.579 L 266.667 35.088 268.421 35.088 L 270.175 35.088 270.175 36.842 L 270.175 38.596 261.404 38.596 L 252.632 38.596 252.632 36.842 L 252.632 35.088 254.386 35.088 L 256.140 35.088 256.140 31.579 L 256.140 28.070 257.895 28.070 L 259.649 28.070 259.649 24.561 L 259.649 21.053 261.404 21.053 L 263.158 21.053 263.158 24.561 M42.105 33.333 L 42.105 42.105 33.333 42.105 L 24.561 42.105 24.561 33.333 L 24.561 24.561 33.333 24.561 L 42.105 24.561 42.105 33.333 M59.649 26.316 L 59.649 28.070 57.895 28.070 L 56.140 28.070 56.140 26.316 L 56.140 24.561 57.895 24.561 L 59.649 24.561 59.649 26.316 M105.263 26.316 L 105.263 28.070 107.018 28.070 L 108.772 28.070 108.772 26.316 L 108.772 24.561 107.018 24.561 L 105.263 24.561 105.263 26.316 M203.509 26.316 L 203.509 28.070 205.263 28.070 L 207.018 28.070 207.018 26.316 L 207.018 24.561 205.263 24.561 L 203.509 24.561 203.509 26.316 M385.965 28.070 L 385.965 31.579 384.211 31.579 L 382.456 31.579 382.456 33.333 L 382.456 35.088 384.211 35.088 L 385.965 35.088 385.965 40.351 L 385.965 45.614 387.719 45.614 L 389.474 45.614 389.474 47.368 L 389.474 49.123 391.228 49.123 L 392.982 49.123 392.982 50.877 L 392.982 52.632 396.491 52.632 L 400.000 52.632 400.000 50.877 L 400.000 49.123 396.491 49.123 L 392.982 49.123 392.982 47.368 L 392.982 45.614 391.228 45.614 L 389.474 45.614 389.474 40.351 L 389.474 35.088 392.982 35.088 L 396.491 35.088 396.491 33.333 L 396.491 31.579 392.982 31.579 L 389.474 31.579 389.474 28.070 L 389.474 24.561 387.719 24.561 L 385.965 24.561 385.965 28.070 M28.070 33.333 L 28.070 38.596 33.333 38.596 L 38.596 38.596 38.596 33.333 L 38.596 28.070 33.333 28.070 L 28.070 28.070 28.070 33.333 M322.807 29.825 L 322.807 31.579 317.544 31.579 L 312.281 31.579 312.281 33.333 L 312.281 35.088 310.526 35.088 L 308.772 35.088 308.772 40.351 L 308.772 45.614 310.526 45.614 L 312.281 45.614 312.281 47.368 L 312.281 49.123 310.526 49.123 L 308.772 49.123 308.772 52.632 L 308.772 56.140 307.018 56.140 L 305.263 56.140 305.263 61.404 L 305.263 66.667 307.018 66.667 L 308.772 66.667 308.772 68.421 L 308.772 70.175 317.544 70.175 L 326.316 70.175 326.316 68.421 L 326.316 66.667 328.070 66.667 L 329.825 66.667 329.825 63.158 L 329.825 59.649 328.070 59.649 L 326.316 59.649 326.316 57.895 L 326.316 56.140 322.807 56.140 L 319.298 56.140 319.298 54.386 L 319.298 52.632 315.789 52.632 L 312.281 52.632 312.281 50.877 L 312.281 49.123 317.544 49.123 L 322.807 49.123 322.807 47.368 L 322.807 45.614 324.561 45.614 L 326.316 45.614 326.316 40.351 L 326.316 35.088 324.561 35.088 L 322.807 35.088 322.807 33.333 L 322.807 31.579 326.316 31.579 L 329.825 31.579 329.825 29.825 L 329.825 28.070 326.316 28.070 L 322.807 28.070 322.807 29.825 M35.088 33.333 L 35.088 35.088 33.333 35.088 L 31.579 35.088 31.579 33.333 L 31.579 31.579 33.333 31.579 L 35.088 31.579 35.088 33.333 M101.754 33.333 L 101.754 35.088 103.509 35.088 L 105.263 35.088 105.263 42.105 L 105.263 49.123 103.509 49.123 L 101.754 49.123 101.754 50.877 L 101.754 52.632 107.018 52.632 L 112.281 52.632 112.281 50.877 L 112.281 49.123 110.526 49.123 L 108.772 49.123 108.772 40.351 L 108.772 31.579 105.263 31.579 L 101.754 31.579 101.754 33.333 M115.789 33.333 L 115.789 35.088 117.544 35.088 L 119.298 35.088 119.298 42.105 L 119.298 49.123 117.544 49.123 L 115.789 49.123 115.789 50.877 L 115.789 52.632 119.298 52.632 L 122.807 52.632 122.807 45.614 L 122.807 38.596 124.561 38.596 L 126.316 38.596 126.316 36.842 L 126.316 35.088 129.825 35.088 L 133.333 35.088 133.333 42.105 L 133.333 49.123 131.579 49.123 L 129.825 49.123 129.825 50.877 L 129.825 52.632 135.088 52.632 L 140.351 52.632 140.351 50.877 L 140.351 49.123 138.596 49.123 L 136.842 49.123 136.842 42.105 L 136.842 35.088 135.088 35.088 L 133.333 35.088 133.333 33.333 L 133.333 31.579 129.825 31.579 L 126.316 31.579 126.316 33.333 L 126.316 35.088 124.561 35.088 L 122.807 35.088 122.807 33.333 L 122.807 31.579 119.298 31.579 L 115.789 31.579 115.789 33.333 M147.368 33.333 L 147.368 35.088 145.614 35.088 L 143.860 35.088 143.860 36.842 L 143.860 38.596 142.105 38.596 L 140.351 38.596 140.351 42.105 L 140.351 45.614 142.105 45.614 L 143.860 45.614 143.860 47.368 L 143.860 49.123 145.614 49.123 L 147.368 49.123 147.368 50.877 L 147.368 52.632 150.877 52.632 L 154.386 52.632 154.386 50.877 L 154.386 49.123 156.140 49.123 L 157.895 49.123 157.895 47.368 L 157.895 45.614 156.140 45.614 L 154.386 45.614 154.386 47.368 L 154.386 49.123 150.877 49.123 L 147.368 49.123 147.368 47.368 L 147.368 45.614 145.614 45.614 L 143.860 45.614 143.860 42.105 L 143.860 38.596 145.614 38.596 L 147.368 38.596 147.368 36.842 L 147.368 35.088 150.877 35.088 L 154.386 35.088 154.386 36.842 L 154.386 38.596 156.140 38.596 L 157.895 38.596 157.895 35.088 L 157.895 31.579 152.632 31.579 L 147.368 31.579 147.368 33.333 M178.947 35.088 L 178.947 38.596 180.702 38.596 L 182.456 38.596 182.456 36.842 L 182.456 35.088 185.965 35.088 L 189.474 35.088 189.474 38.596 L 189.474 42.105 184.211 42.105 L 178.947 42.105 178.947 43.860 L 178.947 45.614 177.193 45.614 L 175.439 45.614 175.439 47.368 L 175.439 49.123 177.193 49.123 L 178.947 49.123 178.947 50.877 L 178.947 52.632 184.211 52.632 L 189.474 52.632 189.474 50.877 L 189.474 49.123 191.228 49.123 L 192.982 49.123 192.982 50.877 L 192.982 52.632 194.737 52.632 L 196.491 52.632 196.491 50.877 L 196.491 49.123 194.737 49.123 L 192.982 49.123 192.982 42.105 L 192.982 35.088 191.228 35.088 L 189.474 35.088 189.474 33.333 L 189.474 31.579 184.211 31.579 L 178.947 31.579 178.947 35.088 M200.000 33.333 L 200.000 35.088 201.754 35.088 L 203.509 35.088 203.509 42.105 L 203.509 49.123 201.754 49.123 L 200.000 49.123 200.000 50.877 L 200.000 52.632 205.263 52.632 L 210.526 52.632 210.526 50.877 L 210.526 49.123 208.772 49.123 L 207.018 49.123 207.018 40.351 L 207.018 31.579 203.509 31.579 L 200.000 31.579 200.000 33.333 M214.035 33.333 L 214.035 35.088 215.789 35.088 L 217.544 35.088 217.544 42.105 L 217.544 49.123 215.789 49.123 L 214.035 49.123 214.035 50.877 L 214.035 52.632 219.298 52.632 L 224.561 52.632 224.561 50.877 L 224.561 49.123 222.807 49.123 L 221.053 49.123 221.053 43.860 L 221.053 38.596 222.807 38.596 L 224.561 38.596 224.561 36.842 L 224.561 35.088 226.316 35.088 L 228.070 35.088 228.070 36.842 L 228.070 38.596 229.825 38.596 L 231.579 38.596 231.579 35.088 L 231.579 31.579 228.070 31.579 L 224.561 31.579 224.561 33.333 L 224.561 35.088 222.807 35.088 L 221.053 35.088 221.053 33.333 L 221.053 31.579 217.544 31.579 L 214.035 31.579 214.035 33.333 M280.702 33.333 L 280.702 35.088 282.456 35.088 L 284.211 35.088 284.211 42.105 L 284.211 49.123 285.965 49.123 L 287.719 49.123 287.719 50.877 L 287.719 52.632 291.228 52.632 L 294.737 52.632 294.737 50.877 L 294.737 49.123 296.491 49.123 L 298.246 49.123 298.246 50.877 L 298.246 52.632 301.754 52.632 L 305.263 52.632 305.263 50.877 L 305.263 49.123 303.509 49.123 L 301.754 49.123 301.754 42.105 L 301.754 35.088 303.509 35.088 L 305.263 35.088 305.263 33.333 L 305.263 31.579 300.000 31.579 L 294.737 31.579 294.737 33.333 L 294.737 35.088 296.491 35.088 L 298.246 35.088 298.246 40.351 L 298.246 45.614 296.491 45.614 L 294.737 45.614 294.737 47.368 L 294.737 49.123 291.228 49.123 L 287.719 49.123 287.719 40.351 L 287.719 31.579 284.211 31.579 L 280.702 31.579 280.702 33.333 M333.333 33.333 L 333.333 35.088 335.088 35.088 L 336.842 35.088 336.842 42.105 L 336.842 49.123 338.596 49.123 L 340.351 49.123 340.351 50.877 L 340.351 52.632 343.860 52.632 L 347.368 52.632 347.368 50.877 L 347.368 49.123 349.123 49.123 L 350.877 49.123 350.877 50.877 L 350.877 52.632 354.386 52.632 L 357.895 52.632 357.895 50.877 L 357.895 49.123 356.140 49.123 L 354.386 49.123 354.386 42.105 L 354.386 35.088 356.140 35.088 L 357.895 35.088 357.895 33.333 L 357.895 31.579 352.632 31.579 L 347.368 31.579 347.368 33.333 L 347.368 35.088 349.123 35.088 L 350.877 35.088 350.877 40.351 L 350.877 45.614 349.123 45.614 L 347.368 45.614 347.368 47.368 L 347.368 49.123 343.860 49.123 L 340.351 49.123 340.351 40.351 L 340.351 31.579 336.842 31.579 L 333.333 31.579 333.333 33.333 M364.912 33.333 L 364.912 35.088 363.158 35.088 L 361.404 35.088 361.404 36.842 L 361.404 38.596 363.158 38.596 L 364.912 38.596 364.912 40.351 L 364.912 42.105 368.421 42.105 L 371.930 42.105 371.930 43.860 L 371.930 45.614 373.684 45.614 L 375.439 45.614 375.439 47.368 L 375.439 49.123 370.175 49.123 L 364.912 49.123 364.912 47.368 L 364.912 45.614 363.158 45.614 L 361.404 45.614 361.404 49.123 L 361.404 52.632 368.421 52.632 L 375.439 52.632 375.439 50.877 L 375.439 49.123 377.193 49.123 L 378.947 49.123 378.947 45.614 L 378.947 42.105 375.439 42.105 L 371.930 42.105 371.930 40.351 L 371.930 38.596 368.421 38.596 L 364.912 38.596 364.912 36.842 L 364.912 35.088 370.175 35.088 L 375.439 35.088 375.439 36.842 L 375.439 38.596 377.193 38.596 L 378.947 38.596 378.947 35.088 L 378.947 31.579 371.930 31.579 L 364.912 31.579 364.912 33.333 M322.807 40.351 L 322.807 45.614 317.544 45.614 L 312.281 45.614 312.281 40.351 L 312.281 35.088 317.544 35.088 L 322.807 35.088 322.807 40.351 M10.526 40.351 L 10.526 42.105 8.772 42.105 L 7.018 42.105 7.018 40.351 L 7.018 38.596 8.772 38.596 L 10.526 38.596 10.526 40.351 M189.474 47.368 L 189.474 49.123 184.211 49.123 L 178.947 49.123 178.947 47.368 L 178.947 45.614 184.211 45.614 L 189.474 45.614 189.474 47.368 M0.000 54.386 L 0.000 59.649 5.263 59.649 L 10.526 59.649 10.526 54.386 L 10.526 49.123 5.263 49.123 L 0.000 49.123 0.000 54.386 M7.018 54.386 L 7.018 56.140 5.263 56.140 L 3.509 56.140 3.509 54.386 L 3.509 52.632 5.263 52.632 L 7.018 52.632 7.018 54.386 M14.035 54.386 L 14.035 56.140 15.789 56.140 L 17.544 56.140 17.544 54.386 L 17.544 52.632 15.789 52.632 L 14.035 52.632 14.035 54.386 M38.596 57.895 L 38.596 59.649 36.842 59.649 L 35.088 59.649 35.088 57.895 L 35.088 56.140 36.842 56.140 L 38.596 56.140 38.596 57.895 M319.298 57.895 L 319.298 59.649 322.807 59.649 L 326.316 59.649 326.316 63.158 L 326.316 66.667 317.544 66.667 L 308.772 66.667 308.772 61.404 L 308.772 56.140 314.035 56.140 L 319.298 56.140 319.298 57.895 M56.140 61.404 L 56.140 63.158 54.386 63.158 L 52.632 63.158 52.632 61.404 L 52.632 59.649 54.386 59.649 L 56.140 59.649 56.140 61.404 " stroke="none" fill="#000000" fill-rule="evenodd"></path></g></svg>